<svg width="30" height="30" viewBox="13.61 13.61 29.78 29.78" fill="none" xmlns="http://www.w3.org/2000/svg" xmlns:c2pa="http://c2pa.org/manifest"><metadata><c2pa:manifest>AAAWgmp1bWIAAAAeanVtZGMycGEAEQAQgAAAqgA4m3EDYzJwYQAAABZcanVtYgAAAEdqdW1kYzJtYQARABCAAACqADibcQN1cm46YzJwYTo4NzAxZGYxZS00Yzc2LTQ5ZmEtYTVmOC00MjAwM2Q5MTcyODIAAAADl2p1bWIAAAApanVtZGMyYXMAEQAQgAAAqgA4m3EDYzJwYS5hc3NlcnRpb25zAAAAALxqdW1iAAAARGp1bWRjYm9yABEAEIAAAKoAOJtxE2MycGEuaW5ncmVkaWVudC52MwAAAAAYYzJzaKNGTWfWRizMBSYjxLbFjcEAAABwY2JvcqNpZGM6Zm9ybWF0bWltYWdlL3N2Zyt4bWxqaW5zdGFuY2VJRHgseG1wOmlpZDoxZWZhNDRkZC1jNTY5LTRlMTktODY2MS0zYzZhOTNkYzQwNjNscmVsYXRpb25zaGlwaHBhcmVudE9mAAAB4mp1bWIAAABBanVtZGNib3IAEQAQgAAAqgA4m3ETYzJwYS5hY3Rpb25zLnYyAAAAABhjMnNoJSX4xPV6bhKzBQcFxfKqdwAAAZljYm9yomdhY3Rpb25zgqJmYWN0aW9ua2MycGEub3BlbmVkanBhcmFtZXRlcnOha2luZ3JlZGllbnRzgaJjdXJseC1zZWxmI2p1bWJmPWMycGEuYXNzZXJ0aW9ucy9jMnBhLmluZ3JlZGllbnQudjNkaGFzaFgg8814ckbBQ+YGSU0q0xiRdc5phPFct7zDGaniNGUDkVSkZmFjdGlvbngdY29tLmFudGhyb3BpYy5jbGF1ZGUucHJvdmlkZWRqcGFyYW1ldGVyc6F4H2NvbS5hbnRocm9waWMub3JpZ2luLWNvbmZpZGVuY2VndW5rbm93bmtkZXNjcmlwdGlvbnhmQ2xhdWRlIHByb3ZpZGVkIHRoaXMgZmlsZSBhdCB0aGUgcmVxdWVzdCBvZiBhIHVzZXIgYW5kIG1heSBoYXZlIGNyZWF0ZWQgb3IgbW9kaWZpZWQgdGhlIGZpbGUgY29udGVudHMubXNvZnR3YXJlQWdlbnShZG5hbWVmQ2xhdWRlcmFsbEFjdGlvbnNJbmNsdWRlZPUAAADIanVtYgAAAEBqdW1kY2JvcgARABCAAACqADibcRNjMnBhLmhhc2guZGF0YQAAAAAYYzJzaNA4a9whOmx92dHBTv9hFM8AAACAY2JvcqVjYWxnZnNoYTI1NmNwYWRNAAAAAAAAAAAAAAAAAGRoYXNoWCCxj7lrcz/nnea32pmyDCBNS/NZQx5Ao1npc1FbIyO1iWRuYW1lbmp1bWJmIG1hbmlmZXN0amV4Y2x1c2lvbnOBomVzdGFydBisZmxlbmd0aBkeBAAAAj5qdW1iAAAAJ2p1bWRjMmNsABEAEIAAAKoAOJtxA2MycGEuY2xhaW0udjIAAAACD2Nib3KlY2FsZ2ZzaGEyNTZpc2lnbmF0dXJleE1zZWxmI2p1bWJmPS9jMnBhL3VybjpjMnBhOjg3MDFkZjFlLTRjNzYtNDlmYS1hNWY4LTQyMDAzZDkxNzI4Mi9jMnBhLnNpZ25hdHVyZWppbnN0YW5jZUlEeCx4bXA6aWlkOmMyZGVjY2QyLTZlOTItNDQ3Ni1iMTFkLWU3NTY4YjQ2N2Q3ZnJjcmVhdGVkX2Fzc2VydGlvbnODomN1cmx4LXNlbGYjanVtYmY9YzJwYS5hc3NlcnRpb25zL2MycGEuaW5ncmVkaWVudC52M2RoYXNoWCDzzXhyRsFD5gZJTSrTGJF1zmmE8Vy3vMMZqeI0ZQORVKJjdXJseCpzZWxmI2p1bWJmPWMycGEuYXNzZXJ0aW9ucy9jMnBhLmFjdGlvbnMudjJkaGFzaFggEvmznuln7N4cK+zXJQ/Z65EVUx7yrdS5BJW25U4XV9OiY3VybHgpc2VsZiNqdW1iZj1jMnBhLmFzc2VydGlvbnMvYzJwYS5oYXNoLmRhdGFkaGFzaFggWFYh9mQ7GrFh1xIUrk46e6u1m/sq5jSHsu2zUotx14N0Y2xhaW1fZ2VuZXJhdG9yX2luZm+jZG5hbWVvQW50aHJvcGljIEZpbGVzZ3ZlcnNpb25lMS4wLjBrc3BlY1ZlcnNpb25lMi40LjAAABA4anVtYgAAAChqdW1kYzJjcwARABCAAACqADibcQNjMnBhLnNpZ25hdHVyZQAAABAIY2JvctKEWQISogEmGCFZAgowggIGMIIBjaADAgECAhRA5aAK7sI50L64g/oGQgU9Z1UTADAKBggqhkjOPQQDAzBJMRcwFQYDVQQKEw5BbnRocm9waWMsIFBCQzEuMCwGA1UEAxMlQW50aHJvcGljIENvbnRlbnQgQ3JlZGVudGlhbHMgUm9vdCBDQTAeFw0yNjA4MDcxODQzNTZaFw0yODA4MDYxOTQzNTZaMEQxFzAVBgNVBAoTDkFudGhyb3BpYywgUEJDMSkwJwYDVQQDEyBBbnRocm9waWMgQ2xhdWRlIENvbnRlbnQgU2lnbmluZzBZMBMGByqGSM49AgEGCCqGSM49AwEHA0IABJh6CmvLUBgFFNU0vUKlOVtE6djd17L5SuwX0LemFisBM3dkd/3cyjxFA3Qo5S46fX0/ihY0VZ7mfb9KF703t5OjWDBWMA4GA1UdDwEB/wQEAwIHgDAVBgNVHSUEDjAMBgorBgEEAYPoXgIBMAwGA1UdEwEB/wQCMAAwHwYDVR0jBBgwFoAUzlHiBIFOZFsj+OPEz5o+nMHXXMIwCgYIKoZIzj0EAwMDZwAwZAIwMXMdFJ4BetLLVY7ORuE9noqbbAZOZn/aArXyTwFAZfKrPzxF2vPoJNf1+UCdg1XGAjBwX1zd9WGqYkqmL5SFqw1QySjr1zJfpJM9+1rdDwSPLMOPOjKuiXjoU/pUUeG9RwmhY3BhZFkNngAAAAAAAAAAAAAAAAAAAAAAAAAAAAAAAAAAAAAAAAAAAAAAAAAAAAAAAAAAAAAAAAAAAAAAAAAAAAAAAAAAAAAAAAAAAAAAAAAAAAAAAAAAAAAAAAAAAAAAAAAAAAAAAAAAAAAAAAAAAAAAAAAAAAAAAAAAAAAAAAAAAAAAAAAAAAAAAAAAAAAAAAAAAAAAAAAAAAAAAAAAAAAAAAAAAAAAAAAAAAAAAAAAAAAAAAAAAAAAAAAAAAAAAAAAAAAAAAAAAAAAAAAAAAAAAAAAAAAAAAAAAAAAAAAAAAAAAAAAAAAAAAAAAAAAAAAAAAAAAAAAAAAAAAAAAAAAAAAAAAAAAAAAAAAAAAAAAAAAAAAAAAAAAAAAAAAAAAAAAAAAAAAAAAAAAAAAAAAAAAAAAAAAAAAAAAAAAAAAAAAAAAAAAAAAAAAAAAAAAAAAAAAAAAAAAAAAAAAAAAAAAAAAAAAAAAAAAAAAAAAAAAAAAAAAAAAAAAAAAAAAAAAAAAAAAAAAAAAAAAAAAAAAAAAAAAAAAAAAAAAAAAAAAAAAAAAAAAAAAAAAAAAAAAAAAAAAAAAAAAAAAAAAAAAAAAAAAAAAAAAAAAAAAAAAAAAAAAAAAAAAAAAAAAAAAAAAAAAAAAAAAAAAAAAAAAAAAAAAAAAAAAAAAAAAAAAAAAAAAAAAAAAAAAAAAAAAAAAAAAAAAAAAAAAAAAAAAAAAAAAAAAAAAAAAAAAAAAAAAAAAAAAAAAAAAAAAAAAAAAAAAAAAAAAAAAAAAAAAAAAAAAAAAAAAAAAAAAAAAAAAAAAAAAAAAAAAAAAAAAAAAAAAAAAAAAAAAAAAAAAAAAAAAAAAAAAAAAAAAAAAAAAAAAAAAAAAAAAAAAAAAAAAAAAAAAAAAAAAAAAAAAAAAAAAAAAAAAAAAAAAAAAAAAAAAAAAAAAAAAAAAAAAAAAAAAAAAAAAAAAAAAAAAAAAAAAAAAAAAAAAAAAAAAAAAAAAAAAAAAAAAAAAAAAAAAAAAAAAAAAAAAAAAAAAAAAAAAAAAAAAAAAAAAAAAAAAAAAAAAAAAAAAAAAAAAAAAAAAAAAAAAAAAAAAAAAAAAAAAAAAAAAAAAAAAAAAAAAAAAAAAAAAAAAAAAAAAAAAAAAAAAAAAAAAAAAAAAAAAAAAAAAAAAAAAAAAAAAAAAAAAAAAAAAAAAAAAAAAAAAAAAAAAAAAAAAAAAAAAAAAAAAAAAAAAAAAAAAAAAAAAAAAAAAAAAAAAAAAAAAAAAAAAAAAAAAAAAAAAAAAAAAAAAAAAAAAAAAAAAAAAAAAAAAAAAAAAAAAAAAAAAAAAAAAAAAAAAAAAAAAAAAAAAAAAAAAAAAAAAAAAAAAAAAAAAAAAAAAAAAAAAAAAAAAAAAAAAAAAAAAAAAAAAAAAAAAAAAAAAAAAAAAAAAAAAAAAAAAAAAAAAAAAAAAAAAAAAAAAAAAAAAAAAAAAAAAAAAAAAAAAAAAAAAAAAAAAAAAAAAAAAAAAAAAAAAAAAAAAAAAAAAAAAAAAAAAAAAAAAAAAAAAAAAAAAAAAAAAAAAAAAAAAAAAAAAAAAAAAAAAAAAAAAAAAAAAAAAAAAAAAAAAAAAAAAAAAAAAAAAAAAAAAAAAAAAAAAAAAAAAAAAAAAAAAAAAAAAAAAAAAAAAAAAAAAAAAAAAAAAAAAAAAAAAAAAAAAAAAAAAAAAAAAAAAAAAAAAAAAAAAAAAAAAAAAAAAAAAAAAAAAAAAAAAAAAAAAAAAAAAAAAAAAAAAAAAAAAAAAAAAAAAAAAAAAAAAAAAAAAAAAAAAAAAAAAAAAAAAAAAAAAAAAAAAAAAAAAAAAAAAAAAAAAAAAAAAAAAAAAAAAAAAAAAAAAAAAAAAAAAAAAAAAAAAAAAAAAAAAAAAAAAAAAAAAAAAAAAAAAAAAAAAAAAAAAAAAAAAAAAAAAAAAAAAAAAAAAAAAAAAAAAAAAAAAAAAAAAAAAAAAAAAAAAAAAAAAAAAAAAAAAAAAAAAAAAAAAAAAAAAAAAAAAAAAAAAAAAAAAAAAAAAAAAAAAAAAAAAAAAAAAAAAAAAAAAAAAAAAAAAAAAAAAAAAAAAAAAAAAAAAAAAAAAAAAAAAAAAAAAAAAAAAAAAAAAAAAAAAAAAAAAAAAAAAAAAAAAAAAAAAAAAAAAAAAAAAAAAAAAAAAAAAAAAAAAAAAAAAAAAAAAAAAAAAAAAAAAAAAAAAAAAAAAAAAAAAAAAAAAAAAAAAAAAAAAAAAAAAAAAAAAAAAAAAAAAAAAAAAAAAAAAAAAAAAAAAAAAAAAAAAAAAAAAAAAAAAAAAAAAAAAAAAAAAAAAAAAAAAAAAAAAAAAAAAAAAAAAAAAAAAAAAAAAAAAAAAAAAAAAAAAAAAAAAAAAAAAAAAAAAAAAAAAAAAAAAAAAAAAAAAAAAAAAAAAAAAAAAAAAAAAAAAAAAAAAAAAAAAAAAAAAAAAAAAAAAAAAAAAAAAAAAAAAAAAAAAAAAAAAAAAAAAAAAAAAAAAAAAAAAAAAAAAAAAAAAAAAAAAAAAAAAAAAAAAAAAAAAAAAAAAAAAAAAAAAAAAAAAAAAAAAAAAAAAAAAAAAAAAAAAAAAAAAAAAAAAAAAAAAAAAAAAAAAAAAAAAAAAAAAAAAAAAAAAAAAAAAAAAAAAAAAAAAAAAAAAAAAAAAAAAAAAAAAAAAAAAAAAAAAAAAAAAAAAAAAAAAAAAAAAAAAAAAAAAAAAAAAAAAAAAAAAAAAAAAAAAAAAAAAAAAAAAAAAAAAAAAAAAAAAAAAAAAAAAAAAAAAAAAAAAAAAAAAAAAAAAAAAAAAAAAAAAAAAAAAAAAAAAAAAAAAAAAAAAAAAAAAAAAAAAAAAAAAAAAAAAAAAAAAAAAAAAAAAAAAAAAAAAAAAAAAAAAAAAAAAAAAAAAAAAAAAAAAAAAAAAAAAAAAAAAAAAAAAAAAAAAAAAAAAAAAAAAAAAAAAAAAAAAAAAAAAAAAAAAAAAAAAAAAAAAAAAAAAAAAAAAAAAAAAAAAAAAAAAAAAAAAAAAAAAAAAAAAAAAAAAAAAAAAAAAAAAAAAAAAAAAAAAAAAAAAAAAAAAAAAAAAAAAAAAAAAAAAAAAAAAAAAAAAAAAAAAAAAAAAAAAAAAAAAAAAAAAAAAAAAAAAAAAAAAAAAAAAAAAAAAAAAAAAAAAAAAAAAAAAAAAAAAAAAAAAAAAAAAAAAAAAAAAAAAAAAAAAAAAAAAAAAAAAAAAAAAAAAAAAAAAAAAAAAAAAAAAAAAAAAAAAAAAAAAAAAAAAAAAAAAAAAAAAAAAAAAAAAAAAAAAAAAAAAAAAAAAAAAAAAAAAAAAAAAAAAAAAAAAAAAAAAAAAAAAAAAAAAAAAAAAAAAAAAAAAAAAAAAAAAAAAAAAAAAAAAAAAAAAAAAAAAAAAAAAAAAAAAAAAAAAAAAAAAAAAAAAAAAAAAAAAAAAAAAAAAAAAAAAAAAAAAAAAAAAAAAAAAAAAAAAAAAAAAAAAAAAAAAAAAAAAAAAAAAAAAAAAAAAAAAAAAAAAAAAAAAAAAAAAAAAAAAAAAAAAAAAAAAAAAAAAAAAAAAAAAAAAAAAAAAAAAAAAAAAAAAAAAAAAAAAAAAAAAAAAAAAAAAAAAAAAAAAAAAAAAAAAAAAAAAAAAAAAAAAAAAAAAAAAAAAAAAAAAAAAAAAAAAAAAAAAAAAAAAAAAAAAAAAAAAAAAAAAAAAAAAAAAAAAAAAAAAAAAAAAAAAAAAAAAAAAAAAAAAAAAAAAAAAAAAAAAAAAAAAAAAAAAAAAAAAAAAAAAAAAAAAAAAAAAAAAAAAAAAAAAAAAAAAAAAAAAAAAAAAAAAAAAAAAAAAAAAAAAAAAAAAAAAAAAAAAAAAAAAAAAAAAAAAAAAAAAAAAAAAAAAAAAAAAAAAAAAAAAAAAAAAAAAAAAAAAAAAAAAAAAAAAAAAAAAAAAAAAAAAAAAAAAAAAAAAAAAAAAAAAAAAAAAAAAAAAAAAAAAAAAAAAAAAAAAAAAAAAAAAAAAAAAAAAAAAAAAAAAAAAAAAAAAAAAAAAAAAAAAAAAAAAAAAAAAAAAAAAAAAAAAAAAAAAAAAAAAAAAAAAAAAAAAAAAAAAAAAAAAAAAAAAAAAAAAAAAAAAAAAAAAAAAAAAAAAAAAAAAAAAAAAAAAAAAAAAAAAAAAAAAAAAAAAAAAAAAAAAAAAAAAAAAAAAAAAAAAAAAAAAAAAAAAAAAAAAAAAAAAAAAAAAAAAAAAAAAAAAAAAAAAAAAAAAAAAAAAAAAAAAAAAAAAAAAAAAAAAAAAAAAAAAAAAAAAAAAAAAAAAAAAAAAAAAAAAAAAAAAAAAAAAAAAAAAAAAAAAAAAAAAAAAAAAAAAAAAAAAAAAAAAAAAAAAAAAAAAAAAAAAAAAAAAAAAAAAAAAAAAAAAAAAAAAAAAAAAAAAAAAAAAAAAAAAAAAAAAAAAAAAAAAAAAAAAAAAAAAAAAAAAAAAAAAAAAAAAAAAAAAAAAAAAAAAAAAAAAAAAAAAAAAAAAAAAAAAAAAAAAAAAAAAAAAAAAAAAAAAAAAAAAAAAAAAAAAAAAAAAAAAAAAAAAAAAAAAAAAAAAAAAAAAAAAAAAAAAAAAAAAAAAAAAAAAAAAAAAAAAAAPZYQPQkvFOTTNn5Bw7IwmMHnAswLn3vne5kG05JcoVwIoHT4/pjYGBtirqsayvDYFiGcdl//SPHsIi0OdocRK7mKn4=</c2pa:manifest></metadata>
<path d="M31.7833 41.75C32.1975 41.75 32.5333 41.4142 32.5333 41C32.5333 40.5858 32.1975 40.25 31.7833 40.25V41V41.75ZM24.6066 35.5806H23.8566C23.8566 35.6086 23.8581 35.6366 23.8613 35.6644L24.6066 35.5806ZM31.7741 40.25C31.3599 40.25 31.0241 40.5858 31.0241 41C31.0241 41.4142 31.3599 41.75 31.7741 41.75V41V40.25ZM38.9508 35.5806L39.7008 35.5806V35.5806L38.9508 35.5806ZM39.7008 30.9306C39.7008 30.5163 39.365 30.1806 38.9508 30.1806C38.5366 30.1806 38.2008 30.5163 38.2008 30.9306H38.9508H39.7008ZM25.3566 31.9633C25.3566 31.5491 25.0208 31.2133 24.6066 31.2133C24.1923 31.2133 23.8566 31.5491 23.8566 31.9633H24.6066H25.3566ZM32.8033 19.4179H33.5533C33.5533 19.3994 33.5526 19.381 33.5512 19.3626L32.8033 19.4179ZM24.4016 31.9722V31.2222V31.2222V31.9722ZM30.1028 16.6389C29.6885 16.6389 29.3528 16.9747 29.3528 17.3889C29.3528 17.8031 29.6885 18.1389 30.1028 18.1389V17.3889V16.6389ZM16 19.4179L15.252 19.3626C15.2507 19.381 15.25 19.3994 15.25 19.4179H16ZM18.7005 18.1389C19.1147 18.1389 19.4505 17.8031 19.4505 17.3889C19.4505 16.9747 19.1147 16.6389 18.7005 16.6389V17.3889V18.1389ZM31.7833 41V40.25H31.7787V41V41.75H31.7833V41ZM31.7787 41L31.7791 40.25C28.267 40.248 25.6054 37.7513 25.3519 35.4968L24.6066 35.5806L23.8613 35.6644C24.217 38.8271 27.6637 41.7477 31.7783 41.75L31.7787 41ZM31.7741 41V41.75H31.7787V41V40.25H31.7741V41ZM31.7787 41L31.7791 41.75C33.8398 41.7488 35.7918 41.0879 37.2437 40.0029C38.6925 38.9203 39.7008 37.3639 39.7008 35.5806L38.9508 35.5806H38.2008C38.2008 36.7644 37.5298 37.9166 36.3458 38.8014C35.165 39.6838 33.531 40.249 31.7783 40.25L31.7787 41ZM38.9508 35.5806L39.7008 35.5806L39.7008 30.9306H38.9508H38.2008L38.2008 35.5806H38.9508ZM24.6066 35.5806H25.3566V31.9633H24.6066H23.8566V35.5806H24.6066ZM32.8033 19.4179H32.0533V24.8708H32.8033H33.5533V19.4179H32.8033ZM32.8033 24.8708H32.0533C32.0533 28.2653 28.7507 31.2222 24.4016 31.2222V31.9722V32.7222C29.3328 32.7222 33.5533 29.3203 33.5533 24.8708H32.8033ZM32.8033 19.4179L33.5512 19.3626C33.5144 18.8647 33.2844 18.1859 32.7353 17.6251C32.1664 17.0439 31.3036 16.6389 30.1028 16.6389V17.3889V18.1389C30.9423 18.1389 31.4048 18.4102 31.6635 18.6744C31.9421 18.959 32.0421 19.2947 32.0553 19.4732L32.8033 19.4179ZM16 19.4179H15.25V24.8708H16H16.75V19.4179H16ZM16 24.8708H15.25C15.25 29.3203 19.4705 32.7222 24.4016 32.7222V31.9722V31.2222C20.0526 31.2222 16.75 28.2653 16.75 24.8708H16ZM16 19.4179L16.748 19.4732C16.7612 19.2947 16.8612 18.959 17.1398 18.6744C17.3985 18.4102 17.861 18.1389 18.7005 18.1389V17.3889V16.6389C17.4997 16.6389 16.6369 17.0439 16.0679 17.6251C15.5189 18.1859 15.2889 18.8647 15.252 19.3626L16 19.4179ZM21.7377 17.2153H20.9877C20.9877 17.3605 20.8027 17.6806 20.3033 17.6806V18.4306V19.1806C21.3883 19.1806 22.4877 18.4124 22.4877 17.2153H21.7377ZM20.3033 18.4306V17.6806C19.8039 17.6806 19.6189 17.3605 19.6189 17.2153H18.8689H18.1189C18.1189 18.4124 19.2182 19.1806 20.3033 19.1806V18.4306ZM18.8689 17.2153H19.6189C19.6189 17.0701 19.8039 16.75 20.3033 16.75V16V15.25C19.2182 15.25 18.1189 16.0181 18.1189 17.2153H18.8689ZM20.3033 16V16.75C20.8027 16.75 20.9877 17.0701 20.9877 17.2153H21.7377H22.4877C22.4877 16.0181 21.3883 15.25 20.3033 15.25V16ZM29.9344 17.2153H29.1844C29.1844 17.3605 28.9994 17.6806 28.5 17.6806V18.4306V19.1806C29.585 19.1806 30.6844 18.4124 30.6844 17.2153H29.9344ZM28.5 18.4306V17.6806C28.0006 17.6806 27.8156 17.3605 27.8156 17.2153H27.0656H26.3156C26.3156 18.4124 27.415 19.1806 28.5 19.1806V18.4306ZM27.0656 17.2153H27.8156C27.8156 17.0701 28.0006 16.75 28.5 16.75V16V15.25C27.415 15.25 26.3156 16.0181 26.3156 17.2153H27.0656ZM28.5 16V16.75C28.9994 16.75 29.1844 17.0701 29.1844 17.2153H29.9344H30.6844C30.6844 16.0181 29.585 15.25 28.5 15.25V16ZM41 29.0208H40.25C40.25 29.5496 39.698 30.1806 38.7459 30.1806V30.9306V31.6806C40.2836 31.6806 41.75 30.6015 41.75 29.0208H41ZM38.7459 30.9306V30.1806C37.7938 30.1806 37.2418 29.5496 37.2418 29.0208H36.4918H35.7418C35.7418 30.6015 37.2082 31.6806 38.7459 31.6806V30.9306ZM36.4918 29.0208H37.2418C37.2418 28.4921 37.7938 27.8611 38.7459 27.8611V27.1111V26.3611C37.2082 26.3611 35.7418 27.4402 35.7418 29.0208H36.4918ZM38.7459 27.1111V27.8611C39.698 27.8611 40.25 28.4921 40.25 29.0208H41H41.75C41.75 27.4402 40.2836 26.3611 38.7459 26.3611V27.1111Z" fill="#070707"/>
</svg>
